<svg height="20" viewBox="0 0 456 72" fill="#F9F8F7" xmlns="http://www.w3.org/2000/svg"><g clip-path="url(#clip0_lst)"><path d="M1.34122 47.2539C3.96284 30.247 26.6893 22.8638 34.6361 33.1941C43.6151 44.8661 31.5 62.6807 45.6312 70.6627C42.8 71.4569 39.8283 71.918 36.7613 72C31.2275 68.5073 29.3223 61.295 29.8125 53.2646C30.5195 41.6804 27.0967 38.4471 24.75 37.6875C21.444 36.6153 11.1885 36.8051 3.96284 53.2646C2.91374 51.359 2.03376 49.3489 1.34122 47.2539Z"></path><path d="M11.4307 62.6807C7.41815 59.0625 18 41.625 21.0526 47.4868C23.8605 52.8788 17.4375 62.6807 22.9433 69.6902C18.6591 68.0783 14.7621 65.6845 11.4307 62.6807Z"></path><path d="M5.42568 16.3245C13.9196 10.06 30.5755 9.82952 38.0328 12.3786C54.4788 18 56.2096 33.75 57.2809 44.8661C58.0487 52.8332 61.7589 55.7965 65.358 56.7875C63.2284 59.777 60.6514 62.428 57.7243 64.6476C39.5946 58.8932 54.5625 38.8125 38.599 24.1934C29.0266 15.4272 7.90257 19.2828 0 30.247C0.820874 25.1734 2.70744 20.4548 5.42568 16.3245Z"></path><path d="M35.7684 0C55.7785 0 72 16.1209 72 36.0071C72 39.1632 71.5888 42.2238 70.8213 45.1408C63.5625 43.3125 68.625 36.0071 61.2437 21.3781C53.8625 6.74914 38.2078 -2.05665 15.6578 6.05137C21.4114 2.22888 28.328 0 35.7684 0Z"></path></g><path d="M103.245 16.7H109.676V58H103.245V16.7ZM106.49 37.881H116.874V43.545H106.49V37.881ZM116.874 37.881C119.273 37.881 121.299 37.6647 122.951 37.232C124.642 36.7993 125.921 36.0127 126.786 34.872C127.691 33.7313 128.143 32.1383 128.143 30.093C128.143 28.0083 127.691 26.4153 126.786 25.314C125.921 24.1733 124.642 23.4063 122.951 23.013C121.299 22.5803 119.273 22.364 116.874 22.364V16.7C120.571 16.7 123.757 17.1327 126.432 17.998C129.146 18.8633 131.231 20.2793 132.686 22.246C134.141 24.1733 134.869 26.789 134.869 30.093C134.869 33.3183 134.141 35.934 132.686 37.94C131.231 39.9067 129.146 41.3423 126.432 42.247C123.757 43.1123 120.571 43.545 116.874 43.545V37.881ZM106.49 16.7H116.874V22.364H106.49V16.7Z"></path><path d="M140.37 24.96H146.683V58H140.37V24.96ZM146.683 40.654L145.798 35.757C145.798 34.7343 145.916 33.5543 146.152 32.217C146.427 30.8797 146.958 29.6013 147.745 28.382C148.571 27.1233 149.771 26.081 151.344 25.255C152.957 24.429 155.081 24.016 157.716 24.016V30.388C155.395 30.388 153.409 30.7027 151.757 31.332C150.105 31.9613 148.846 33.0233 147.981 34.518C147.116 35.9733 146.683 38.0187 146.683 40.654Z"></path><path d="M163.398 24.96H169.77V58H163.398V24.96ZM163.044 13.75H170.124V21.007H163.044V13.75Z"></path><path d="M177.185 24.96H183.498V58H177.185V24.96ZM183.498 41.539L182.554 35.049C182.554 34.0263 182.731 32.8857 183.085 31.627C183.439 30.3683 184.009 29.1687 184.796 28.028C185.622 26.848 186.704 25.8843 188.041 25.137C189.418 24.3897 191.148 24.016 193.233 24.016C195.278 24.016 197.068 24.4487 198.602 25.314C200.136 26.1793 201.316 27.615 202.142 29.621C203.007 31.5877 203.44 34.2623 203.44 37.645V58H197.127V38.412C197.127 36.6027 196.989 35.049 196.714 33.751C196.478 32.4137 195.967 31.391 195.18 30.683C194.393 29.9357 193.194 29.562 191.581 29.562C190.204 29.562 188.906 30.0143 187.687 30.919C186.468 31.8237 185.465 33.161 184.678 34.931C183.891 36.701 183.498 38.9037 183.498 41.539ZM203.44 41.539L201.847 35.049C201.847 34.0263 202.044 32.8857 202.437 31.627C202.87 30.3683 203.519 29.1687 204.384 28.028C205.289 26.848 206.449 25.8843 207.865 25.137C209.32 24.3897 211.09 24.016 213.175 24.016C215.22 24.016 217.01 24.4487 218.544 25.314C220.078 26.1793 221.258 27.615 222.084 29.621C222.949 31.5877 223.382 34.2623 223.382 37.645V58H217.069V38.412C217.069 36.6027 216.931 35.049 216.656 33.751C216.42 32.4137 215.909 31.391 215.122 30.683C214.335 29.9357 213.136 29.562 211.523 29.562C210.146 29.562 208.848 30.0143 207.629 30.919C206.41 31.8237 205.407 33.161 204.62 34.931C203.833 36.701 203.44 38.9037 203.44 41.539Z"></path><path d="M245.855 58.944C242.433 58.944 239.464 58.2163 236.946 56.761C234.429 55.2663 232.462 53.2013 231.046 50.566C229.67 47.9307 228.981 44.9217 228.981 41.539C228.981 38.117 229.67 35.0883 231.046 32.453C232.462 29.8177 234.429 27.7527 236.946 26.258C239.464 24.7633 242.433 24.016 245.855 24.016C248.097 24.016 250.202 24.4487 252.168 25.314C254.135 26.1793 255.826 27.4577 257.242 29.149C258.658 30.8403 259.701 32.9053 260.369 35.344C261.038 37.7433 261.215 40.4967 260.9 43.604H232.58V38.294H257.36L254.705 40.123C254.823 38.235 254.548 36.524 253.879 34.99C253.211 33.4167 252.208 32.158 250.87 31.214C249.533 30.27 247.861 29.798 245.855 29.798C243.535 29.798 241.607 30.3093 240.073 31.332C238.539 32.3547 237.379 33.751 236.592 35.521C235.845 37.291 235.471 39.297 235.471 41.539C235.471 43.7417 235.845 45.728 236.592 47.498C237.379 49.268 238.539 50.6643 240.073 51.687C241.607 52.6703 243.535 53.162 245.855 53.162C248.176 53.162 250.005 52.631 251.342 51.569C252.719 50.4677 253.663 49.1303 254.174 47.557H260.9C260.389 49.8383 259.445 51.8247 258.068 53.516C256.731 55.2073 255.02 56.5447 252.935 57.528C250.89 58.472 248.53 58.944 245.855 58.944Z"></path><path d="M268.616 58V22.128C268.616 20.4367 268.931 18.9617 269.56 17.703C270.229 16.4443 271.271 15.4807 272.687 14.812C274.103 14.104 275.893 13.75 278.056 13.75H283.189V19.178H278.115C275.991 19.178 274.929 20.1613 274.929 22.128V58H268.616ZM264.84 24.96H282.304V30.388H264.84V24.96Z"></path><path d="M302.318 58.944C298.896 58.944 295.926 58.2163 293.409 56.761C290.892 55.2663 288.925 53.2013 287.509 50.566C286.132 47.9307 285.444 44.9217 285.444 41.539C285.444 38.117 286.132 35.0883 287.509 32.453C288.925 29.8177 290.892 27.7527 293.409 26.258C295.926 24.7633 298.896 24.016 302.318 24.016C305.74 24.016 308.71 24.7633 311.227 26.258C313.744 27.7527 315.691 29.8177 317.068 32.453C318.484 35.0883 319.192 38.117 319.192 41.539C319.192 44.9217 318.484 47.9307 317.068 50.566C315.691 53.2013 313.744 55.2663 311.227 56.761C308.71 58.2163 305.74 58.944 302.318 58.944ZM302.318 53.162C304.481 53.162 306.33 52.69 307.864 51.746C309.398 50.7627 310.578 49.4057 311.404 47.675C312.23 45.905 312.643 43.8597 312.643 41.539C312.643 39.179 312.23 37.114 311.404 35.344C310.578 33.574 309.398 32.217 307.864 31.273C306.33 30.2897 304.481 29.798 302.318 29.798C300.155 29.798 298.286 30.2897 296.713 31.273C295.179 32.217 293.999 33.574 293.173 35.344C292.347 37.114 291.934 39.179 291.934 41.539C291.934 43.8597 292.347 45.905 293.173 47.675C293.999 49.4057 295.179 50.7627 296.713 51.746C298.286 52.69 300.155 53.162 302.318 53.162Z"></path><path d="M324.914 13.75H331.227V58H324.914V13.75Z"></path><path d="M352.108 58.944C349.079 58.944 346.444 58.2163 344.202 56.761C341.999 55.2663 340.288 53.2013 339.069 50.566C337.849 47.9307 337.24 44.9217 337.24 41.539C337.24 38.117 337.849 35.0883 339.069 32.453C340.288 29.8177 341.999 27.7527 344.202 26.258C346.444 24.7633 349.079 24.016 352.108 24.016C354.625 24.016 356.769 24.547 358.539 25.609C360.309 26.671 361.705 28.146 362.728 30.034V52.985C361.744 54.7943 360.387 56.2497 358.657 57.351C356.926 58.413 354.743 58.944 352.108 58.944ZM352.934 53.162C355.136 53.162 356.946 52.6703 358.362 51.687C359.817 50.6643 360.899 49.268 361.607 47.498C362.354 45.728 362.728 43.7417 362.728 41.539C362.728 39.297 362.354 37.291 361.607 35.521C360.899 33.751 359.817 32.3547 358.362 31.332C356.946 30.3093 355.136 29.798 352.934 29.798C351.046 29.798 349.413 30.2897 348.037 31.273C346.66 32.217 345.598 33.574 344.851 35.344C344.103 37.114 343.73 39.179 343.73 41.539C343.73 43.8597 344.103 45.905 344.851 47.675C345.598 49.4057 346.66 50.7627 348.037 51.746C349.413 52.69 351.046 53.162 352.934 53.162ZM362.728 58V13.75H369.041V58H362.728Z"></path><rect x="385" y="33" width="8" height="8" rx="4"></rect><path d="M431.556 58L404.534 16.7H412.027L439.049 58H431.556ZM411.85 58H404.357L431.379 16.7H438.872L411.85 58Z"></path><path d="M444.818 16.7H451.249V58H444.818V16.7Z"></path><defs><clipPath id="clip0_lst"><rect width="72" height="72"></rect></clipPath></defs></svg>
