<svg width="1221" height="305" viewBox="0 0 1221 305" fill="none" xmlns="http://www.w3.org/2000/svg">
<path d="M0 227.045L16.0336 192.632C30.8274 202.155 53.314 208.617 73.659 208.617C95.8355 208.617 104.176 202.773 104.176 193.559C104.176 166.535 4.02952 194.177 4.02952 128.133C4.02952 96.8099 32.3773 74.6733 80.76 74.6733C103.556 74.6733 128.833 79.8985 144.528 89.1127L128.495 123.217C112.151 114.002 95.8355 110.94 80.7318 110.94C59.1751 110.94 49.9325 117.71 49.9325 126.307C49.9325 154.567 150.079 127.234 150.079 192.351C150.079 223.056 121.422 244.884 71.8273 244.884C43.7896 244.884 15.4419 237.214 0.0281632 227.073L0 227.045Z" fill="#7D639E"/>
<path d="M326.309 148.112V242.417H281.336V221.825C272.403 236.883 255.158 244.861 230.812 244.861C191.982 244.861 168.875 223.371 168.875 194.801C168.875 166.231 189.53 145.359 240.054 145.359H278.264C278.264 124.767 265.95 112.8 240.054 112.8C222.499 112.8 204.324 118.643 192.291 128.166L175.046 94.6804C193.221 81.7861 220.019 74.7069 246.535 74.7069C297.06 74.7069 326.337 98.0515 326.337 148.112H326.309ZM278.236 190.194V173.31H245.267C222.781 173.31 215.68 181.598 215.68 192.666C215.68 204.633 225.852 212.639 242.788 212.639C258.821 212.639 272.685 205.279 278.236 190.222V190.194Z" fill="#7D639E"/>
<path d="M531.201 77.151L456.33 252.558C440.296 292.477 417.5 304.473 387.63 304.473C370.695 304.473 352.21 298.938 341.417 289.415L358.973 255.311C366.356 261.773 376.528 265.762 386.081 265.762C399.325 265.762 406.736 259.919 413.188 245.17L413.808 243.625L342.009 77.151H391.604L438.127 189.267L484.959 77.151H531.172H531.201Z" fill="#7D639E"/>
<path d="M731.492 159.798C731.492 211.712 695.451 244.889 648.928 244.889C628.273 244.889 611.338 238.428 599.024 224.916V302.029H550.951V77.1509H596.854V96.1974C608.858 81.758 626.752 74.7069 648.928 74.7069C695.451 74.7069 731.492 107.884 731.492 159.798ZM682.799 159.798C682.799 131.228 664.624 114.036 640.587 114.036C616.551 114.036 598.376 131.228 598.376 159.798C598.376 188.368 616.551 205.56 640.587 205.56C664.624 205.56 682.799 188.368 682.799 159.798Z" fill="#7D639E"/>
<path d="M757.665 27.3946C757.665 12.3373 769.669 0.679016 787.563 0.679016C805.456 0.679016 817.46 11.7473 817.46 26.4676C817.46 42.452 805.456 54.1103 787.563 54.1103C769.669 54.1103 757.665 42.4239 757.665 27.3946ZM763.526 77.1458H811.599V242.412H763.526V77.1458Z" fill="#7D639E"/>
<path d="M1017.73 173.305H892.334C896.955 193.896 914.51 206.482 939.786 206.482C957.342 206.482 969.994 201.257 981.378 190.497L1006.96 218.14C991.551 235.641 968.444 244.856 938.547 244.856C881.231 244.856 843.951 208.926 843.951 159.764C843.951 110.603 881.851 74.6733 932.376 74.6733C982.9 74.6733 1018.66 107.232 1018.66 160.382C1018.66 164.063 1018.04 169.288 1017.73 173.277V173.305ZM891.714 145.353H973.375C969.994 124.453 954.27 110.94 932.714 110.94C911.157 110.94 895.123 124.144 891.742 145.353H891.714Z" fill="#7D639E"/>
<path d="M1220.16 147.803V242.417H1172.09V155.191C1172.09 128.475 1159.77 116.171 1138.5 116.171C1115.39 116.171 1098.74 130.301 1098.74 160.697V242.417H1050.67V77.1509H1096.57V96.5064C1109.5 82.3761 1128.92 74.7069 1151.4 74.7069C1190.54 74.7069 1220.1 97.4335 1220.1 147.803H1220.16Z" fill="#7D639E"/>
</svg>
